<?xml version="1.0" encoding="UTF-8"?><svg id="uuid-d4303ec5-f855-473e-a5da-f84d21e2f1d6" xmlns="http://www.w3.org/2000/svg" viewBox="0 0 544.48 921"><path d="m297.24,106.09c5.67.44,12.23-2.24,10.98,5.64-.85,10.74-1.96,21.45-2.93,32.18-3.31,17.44-.33,34.99.08,52.37-13.82,1.91-27.16,3.74-40.85,5.63,1.9-33.37,1.85-66.67-8.16-99.68,14.2,1.35,27.29,2.6,40.87,3.85Z" style="fill:#fff;"/><path d="m362.54,688.86c-2.32,10.76-3.45,21.24-4.87,32.06,3.78-.67,4.41-3.49,5.33-6.04,10.62-34.27,26.54-68.1,27.9-104.36.11-3.2,1.02-4.51,4.46-3.87,6.36,1.18,12.79,1.51,19.9.76-19.55-16.72-39.42-31.81-59.96-47.16-3.31-3.44-9.61-4.56-11.74-8.78-.45-2.5-2.83-5.35-.66-7.49,10.07-7.97,49.08,26.4,58.24,33.78,6.22,4.57,21.37,15.01,28.56,10.61,22.74-13.72,48.11-22.79,69.19-39.45,4.27-3.38,5.73-3.57,10.39-3.66.8,12.88-7.81,23.68-14.51,33.92-15.47,24.84-34.94,46.66-50.77,71.2-4.79,10.5-30.37-.33-39.92-1.46-8.89,27.69-24.89,52.09-39.5,76.97-23.8,41.85-20.78,14.05-17.29-14,1.16-15.72,5.18-31.01,6.74-46.68,1.02-10.21,2.58-20.36,4.11-30.51.83-5.51,5.66-8.96,13.26-9.52-2.66,21.44-5.83,42-8.87,63.68Z" style="fill:#eaa062;"/><path d="m186.55,690.55c-4.09-22.35-10.55-43.57-11.37-66.09,10.55-.28,13.91,4.3,15.59,16.38,3.82,27.36,4.6,55.06,9.62,82.28-.07,3.75,3.6,14.98,1.21,16.85-4.33,1.81-9.3-10.98-12.3-13.77-17.64-26.57-39.44-51.9-47.2-83.48-.89-3.2-2.26-4.66-5.47-4.21-9.36,1.31-18.78-1.14-28.2.6-3.1.57-6.5-.79-8.52-4.01-6.84-15.64-61.73-83.22-53.65-90.9,2.28-1.32,4.25.54,5.53,2.24,12.33,15.53,57.76,51.77,77.59,40.42,21.63-9.98,40.34-25,60.9-36.89,1.72-1.09,3.17-1.47,5.5-.08-17.78,24.5-39.04,44.42-66.3,57.82,9.37,2.66,23.92-.89,23.24,12.79,2.72,23.26,20.29,69.57,37.47,85.37-1.34-5.75-2.41-10.35-3.64-15.32Z" style="fill:#eaa062;"/><path d="m186.37,614.07c-7.5,1.91-16.65-3.25-18.89-10.14-.7-2.17.83-3.07,2.19-3.95,5.61-3.61,11.02-7.53,15.23-12.72,3.36-4.15,6.16-3.4,10.07-.69,19.63,13.82,40.55,26.29,63.73,33.16,17.82,3.3,34.28-6.3,50.66-11.57,26.09-8.77,28.52-31.62,36.7-24.11,24.77,20.46,28.82,1.06,26.29,28.66-3.27,1.03-6.4,1.82-10.13,2.03,2.52-10.57-15.21-7.46-20.63-5.01-13.38,5.8-26.2,13.03-40.37,16.82-19.74,7.55-39.83,7.37-59.79.37-15.9-4.59-32.17-8.13-47.15-15.63-2.6-1.3-6.64-3-7.92,2.79Z" style="fill:#eaa062;"/><path d="m331.15,867.82c10.7-3.67,20.28-9.77,31.17-10.2,3.52,4.93-8.25,18.43-10.83,23.38-.84,1.23-1.69,2.45-3.5,2.42-9.81-.18-18.78,3.64-28.07,5.97-14.32,3.61-29.06,4.6-43.57,7.04-8.96,1.27-17.57,5.07-26.05.09-20.31-10.56-43.99-16.95-62.59-29.74-6.88-11.17,17.29-4.3,21.96-3.46,60.42,15.9,56.8,26.36,121.47,4.49Z" style="fill:#eaa062;"/><path d="m215.81,807.9c2.85-6.04,4.79-1.45,6.42.33,10.83,15.2,24.3,27.13,42.04,33.55,3.7,1.63,8.08-.74,12.12-1.4,4.4-.71,8.66-2.45,13.08-2.95,16.93-2.66,32.37-19.28,44.04-31.15-2.6-.89-4.61,1.42-7.08.45-1.18-8.29,16.03-8.36,14.18.52-1.61,8.55-4.6,16.01-11.97,21.76-12.18,9.5-24.25,19.13-38.21,25.87-25.73,13.74-47.92-8.8-64.58-26.28-4.77-5.64-12.73-12.32-10.04-20.72Z" style="fill:#eaa062;"/><path d="m41.26,486.14c-1.58,4.47-6.22,3.79-5.27-.94-.07-10.99,2.76-21.4,7.4-31.2,6.79-14.34,13.23-31.12,28.88-37.77,8.47-2.19,13.7,13.43,8.97,18.92-13.39,17.02-29.37,31.9-39.99,50.99Z" style="fill:#eaa062;"/><path d="m501.37,436.09c5.88,8.06,24.25,56.56,17.68,62.8-3.48,1-8.96-11.97-11.31-14.82-7.62-13.28-17.2-25.11-27.72-36.21-2.19-3.41-7.83-6.16-7.22-10.53,4.94-15.45,20.22-11.81,28.58-1.24Z" style="fill:#eaa062;"/><path d="m209.41,574.01c-2.09-1.82-3.42-3.64-3.14-6.25,2.11-1.85,3.83-.3,5.37.72,20.73,14.9,45.47,18.31,68.83,26.33-1.37,3.65-5.06,3.64-7.48,5.36-8.23,5.86-15.5,4.3-23.61-1.3-12.79-8.83-26.4-16.49-39.98-24.85Z" style="fill:#eaa062;"/><path d="m231.43,583.13c-5.36-2.96-29.91-10.99-23.94-18.39,6.52-8.63,13.59-16.81,21.73-23.99,5.89-5.69,11.59,1.09,18.6-.04-1.43-6.43-6.99-27.71-16.57-22.36-12.85,9.57-25.1,19.76-35.71,31.89-4.01,4.58-9.58,7.67-14.92,10.61-25.27,12.75-51.44,43.18-81.31,26.17-12.56-5.66-55.53-32.62-53.91-46.52,13.76-58.3,53.5-106.3,92.92-149.64,10.16-26.38,17.2-54.88,27.8-81.5,3.92-10.27-1.01-10.78-9.8-12.57,7.63-13.8,15.72-26.84,28.82-35.98,8.54-6.37,16.55-13.44,25.27-19.59,24.97-15.8,55.64-21.71,84.85-21.46,24.34,1.54,45.84,13.61,66.2,25.99,8,4.76,13.69,11.54,18.74,19.52,8.88,14.73,20.78,27.5,28.1,43.21-4.24,3.45-9.56.59-14.14,2.77,11,30.05,21.92,60.46,29.46,91.8,2.06,7.79,5.57,14.8,10.27,21.46,16.75,23.7,34.99,46.19,54.04,68.06,4.89,5.62,6.46,13.08,9.72,19.61,3.15,6.8,15.47,30.44,10.42,36.08-8.69,3.62-15.42,10.25-23.31,15.1-17.38,10.49-36.11,18.41-53.77,28.35-14.2,5.92-32.91-11.61-43.55-20-10.93-9.77-23.68-17.07-36.22-24.58-.83-.5-1.98-1.06-2.81-.86-6.47,1.56-7.49-3.15-9.18-7.5-11.46-27.21-24.52-55.45-44.89-76.83-1.74,1.76-.69,3.71-.11,5.44,4.91,14.66,10.19,29.21,14.81,43.96,5.21,16.63,10.04,33.38,12.82,50.67,1.03,6.41-1.87,10.55-6.43,13.46-11.08,7.08-22.51,13.61-33.84,20.3-1.38.81-2.74,1.66-4.65,1.15-15.28-4.31-31.05-6.94-45.51-13.79Z" style="fill:#edb07c;"/><path d="m253.42,880.21c-21.64-5.76-42.21-16.71-64.6-15.94-2.58.67-3.29-1.77-4.22-3.45-30.03-55.54-47.41-116.69-63.68-177.34-5.17-14.79-6.79-32.04-17.47-44.07-1.2-1.52-2.93-2.75-3-5.9,5.66,2.51,11.36.61,16.89,1.48,6.65,1.04,13.18,1.15,19.8-.07,4.01-.74,6.68-.04,7.82,4.99,8.31,33.47,31.5,59.17,49.98,87.52,2.48-1.74,2.19-4.17,1.85-6.29-4.37-30.81-7.11-61.95-10.48-92.77,32.26,8.11,63.52,25.8,97.01,28.88,14.17-6.77,29.84-8.87,44.47-14.29,9.68-3.59,19.45-6.87,28.66-11.6,1.32-.68,2.62-1.44,5.14-1.08-2.87,37.02-11.66,73.26-13.81,111.02,3.53-1.97,6.1-4.21,7.65-6.99,15.4-28.53,35.02-55.4,44.98-86.52.71-2.27,2.04-3.62,4.35-2.88,12.2,3.88,24.5,7.02,38.32,5.68-23.16,64.78-47.64,128.11-71.57,192.48-3.57,11.41-10.36,18.09-22.47,22.2-30.94,8.75-63.18,25.73-95.63,14.94Z" style="fill:#edb07c;"/><path d="m301.39,631.47c-14.26,2.87-27.74,10.66-41.92,5.41-10.84-1.85-76.65-16.76-76.24-26.14.94-6.42,12.17-3.83,16.07-1.67,26.14,9.6,55.57,22.87,83.62,18.81,18.96-4.08,36.61-11.82,53.89-20.25,8-3.9,15.67-4.7,24.03-2.32,6.52.7,6.62,9.6,0,10.03-19.95,4.35-39.15,11.47-59.44,16.14Z" style="fill:#edb07c;"/><path d="m39.8,476.51c.88,10.84-2.49,19.83-9.31,28.01-3.41-5.9-11.54-14.09-9.85-20.96,4.78-19.77,12.15-38.69,19.21-57.68,3.19-8.58,7.94-11.29,17.13-11.05,4.7.9,14.3-.84,17.27,2.82.1,2.06-1.86,2.76-3.09,3.42-17,10.4-26.26,36.6-31.37,55.45Z" style="fill:#edb07c;"/><path d="m483.16,425.83c5.68-5.69,12.74-4.46,19.39-4.78,1.51-.07,1.88,1.66,2.53,2.8,9.51,16.45,27.98,67.61,18.28,84.03-2.52-4.62-6.65-7.72-6.19-14.2-1.45-15.77-8.21-31.49-13.81-46.33-7.1-17.63-23.24-17.4-20.2-21.52Z" style="fill:#edb07c;"/><path d="m535.68,431.55c-7.49-12.27-11.84-35.59-29.72-34.87-5.9.13-6.93-1.26-5.7-7.2,1.42-23-28.56-53.52-42.48-71.19-10.77-15.13-25.39-9.08-32.19-24.91-19.66-33.87-48.84-63.79-84.52-80.69-27.58-9.44-9.13-76.09-6.74-98.65.91-7.24,1.94-13.83,8.1-19.38,17.56-16.46,27.82-39.5,37.63-61.16,11.04-14.6-52.8-29.14-62.67-29.57-21.87-1.8-44.48-4.46-66.09-3.83-18.71,6.91-38.92,9.24-57.77,16.14-18.43,5.69,14.06,59.51,23.59,67.34,4.81,4.96,8.41,11.04,14.6,14.72,1.06.63,1.45,2.53,1.96,3.91,11.14,31.4,12.97,64.26,9.17,97.11-.3,4.79-2.23,7.6-7.56,8.63-28.85,3.54-99.72,55.12-111.21,81.68-.86,1.65-1.26,3.5-3.37,3.95-41.08,11.79-55.02,58.87-57.76,96.88-.3,3.12-1.36,4.44-4.59,4.29-7.46.44-24.09.98-28.52,6.08C10.87,426.25-2.13,456.86.29,489.09c4.94,12.35,10.19,24.77,18.68,35.39,3.81,5.3,3.31,10.77,1.82,16.17-7.31,25.41,44.62,86.88,64.09,103.09,9.84,8.62,15.71,18.95,17.6,31.89,15.78,66.55,28.76,134.6,56.27,197.63,9.48,21.32,25.87,32.57,47.76,38.6,46.82-2.56,94.73,7.97,138.98-8.27,10.11-5.11,24-5.98,30.66-15.92,35.49-67.63,51.25-143.62,75.25-215.74,2.8-4.65.61-13.07,5.37-15.42,27.62-16.85,63.68-64.5,70.42-96.11-1.41-18.1,8.34-31.17,16.91-46.51-.39-28.32,3.82-56.33-8.41-82.35ZM274.58,105.69c45.88,6.57,29.04-13.25,28.34,55.91-.97,46.42,13.64,29.71-36.34,38.47.26-31.96,1.73-63.85-7.72-94.9,6.04-1.76,10.98-.32,15.72.51ZM33.42,496.7c-.93,1.32-1.34,3.06-3.61,3.78-2.29-5.37-8.66-10.32-7.44-16.57,4.13-12.08,17.16-70.97,31.62-67.47,13.19-1.18,34.78,1.81,23.86,19.76-17.04,19.09-33.78,37.24-44.42,60.49Zm469.95,64.52c-16.88,29.95-38.86,56.1-58.59,84.08-17.35,40.12-30.84,81.69-46.87,122.37-14.88,37.26-24.78,77-46.86,110.94-2.36,3.61-5.72,2.68-8.79,3.42-10.32,2.5-20.6,5.13-30.93,7.57-66.19,12.84-55.94,6-116.92-20.04-42.09-57.38-55.09-133.65-76.13-201.07-2.62-9.13-4.5-18.75-10.53-26.69-20.17-28.82-39.71-58.18-58.48-87.9-6.17-54.4,55.45-121.97,90.49-160.95,9.96-26.49,16.82-54.93,27.71-81.45,1.4-4.04,1.69-8.68.87-12.78-1.45-4.21-6.09-.21-8.34-3.6,24.06-45.6,76.18-71.55,126.35-74.34,26.65-.94,51.23,13.01,73.54,26.13,7.73,4.64,13.45,11.05,18.26,18.66,8.51,14.44,20.37,26.76,27.23,42.14-4.81,2.47-16.47-1.71-12.52,7.21,12.93,29.11,21.55,59.62,29.35,90.37,14.43,40.64,54.56,65.83,72.12,104.06,7.04,15.79,19.98,35.19,9.04,51.85Zm20.03-57.38c-11.44-12.83-17.93-30.37-29.45-42.83-5.44-6.24-10.65-12.71-16.36-18.71-2.52-2.64-2.64-4.68-.59-7.28,5.52-6.99,11.17-13.42,21.48-12.8,2.96.18,4.61.76,5.89,3.24,9.35,18.77,24.53,58.61,19.02,78.38Z" style="fill:#151515;"/><path d="m311.17,575.97c10.8-7.59,10.23-9.89,8.14-19.64-6.08-28.31-15.18-55.7-25.2-82.82-.79-3.86-5.66-14.23-1.81-16.38,2.02-.76,2.89,1.02,3.92,2.32,21.07,26.92,38.36,57.08,48.37,89.88.59,2.02,1.88,3.01,3.43,4,23.56,14.72,44.23,33.27,66.22,50.12,3.6,2.06,2.34,5.86-1.84,4.99-4.3,1.13-20.44-2.8-19.76,3.28-1.51,36.34-17.52,69.61-27.9,103.94-1.15,3.44-2.75,6.27-8.24,6.72,2.61-32.23,9.69-63.25,12.71-95.4-26.2,14.34-54.29,21.19-82.31,30.25-5.31,2.7-10.75.93-16.05-.33-32.18-7.51-62.27-20.1-93.49-30.77.29,25.81,8.63,50.98,13.7,76.29.47,1.93,1.5,4.37-.54,5.44-12.56-.83-38.89-72.02-39.53-86.03,2.33-8.92-5.17-10.26-12.29-11.27-3.24-.91-9.49,1.51-11.36-1.55-.88-4.19,11.77-8.52,14.9-11.18,34.41-18.02,50.86-55.09,82.12-76.81,7.94-6.71,14.96-8.57,19.61,2.52.85,4.13,12.45,21.72,2.34,19.59-9.39-3.12-13.1-4.86-20.22,3.31-5.34,5.7-10.89,11.18-15.47,17.55-3.21,4.46-2.89,6.44,2.03,9.55,6.74,4.26,13.52,8.46,20.32,12.62,8.07,4.94,16.22,9.74,24.24,14.75,10.53,5.86,42.05-19.62,53.98-24.95m-5.46,52.74c20.67-4.81,40.58-12.46,61.5-16.36,6.8-1,3.52-5.33,3.8-10.25.47-2.98-.99-4.33-3.63-4.91-7.94-1.74-14.9-5.44-21.16-10.55-6.36-5.73-10.37,8.41-16.18,10.81-10.86,10.78-25.42,14.2-39.25,19.45-35.28,16.18-69.8-11.18-98.44-29.55-1.49-1.06-2.72-1.87-4.34-.26-5.03,5.04-10.22,9.89-16.15,13.89-1.33.9-2.09,2.2-1.2,3.87,2.2,6.99,9.94,7.15,15.9,9.3,23.81,7.62,46.96,17.48,71.98,21.01,16.29,5.56,30.72-3.05,47.17-6.45Z" style="fill:#151515;"/><path d="m426.97,428.56c11.93,18.06-1.78,16.22-15.02,11.35-14.28-5.24-29.16-5.96-44.09-6.43-16.69-.82-31.28,8.7-47.55,9.92-16.7-.78,10.22-25.56,14.93-29.34,7.06-6.01,14.47-11.62,21.97-17.13,23.35-16.97,54.74,14.62,69.77,31.62Z" style="fill:#151515;"/><path d="m229.5,440.31c-20.34-7.84-40.52-11.68-61.95-10.52-9.7,0-19.55.68-29.04,3.37-4.63.59-16.32,4.61-16.61-2.62-.62-14.37,58.7-53.9,70.79-41.37,16.83,10.83,31.23,24.08,41.11,41.76,3.54,5.19,4.95,13.85-4.3,9.38Z" style="fill:#151515;"/><path d="m331.85,452.68c15.74-15.92,32.41-18.61,53.64-13.86,9.36.96,36.89,13.27,36.82,23.25-2.68,3.25-10.5.91-14.12-.29-3.83-.84-18.93-7.16-18.59-.17-.79,10.24-7.3,16.76-16.57,16.87-11.3.13-19.21-6.11-20.03-16.38-.33-4.2-2.44-4.17-5.3-3.31-8.41,2.36-29.34,10.09-15.86-6.1Z" style="fill:#151515;"/><path d="m192.1,469.24c-14.31,7.22-32.81,4.06-32.47-15.66-7.6.59-13.93,4.14-20.83,6.67-2.48.91-5.37,2.26-7.21-.67-4.72-10.67,29.63-25.54,38.01-24.37,17.62-2.09,56.33,7.51,60.58,27.45-8.41,4.21-26.79-14.59-31.07-1.3-1.04,3.41-3.23,6.18-7.01,7.88Z" style="fill:#151515;"/><path d="m285.26,820.99c4.04-.4,62.19-26.93,49.43-12.36-27.93,23.76-24.69,27.51-62.37,34.09-5.81,1.25-10.75.47-15.71-2.39-7.6-4.91-16.92-7.69-22.91-14.72-2.81-4.65-15.79-15.99-14.11-20.43,19.86-.76,44.99,22.7,65.66,15.81Z" style="fill:#151515;"/><path d="m206.29,910.23l4.75,2.73" style="fill:none;"/><path d="m316.19,912.09c8.58-1.83,16.93-4.47,25.27-7.18h-147.82c38.22,21.82,81.34,18.6,122.55,7.18Z" style="fill:#151515;"/></svg>